<mxfile host="app.diagrams.net" agent="Mozilla/5.0 (X11; Linux x86_64) AppleWebKit/537.36 (KHTML, like Gecko) Chrome/134.0.0.0 Safari/537.36" border="50" scale="3" compressed="false" locked="false" version="26.1.0" pages="2">
  <diagram name="Mapa Mental" id="YmL12bMKpDGza6XwsDPr">
    <mxGraphModel dx="4000" dy="1198" grid="1" gridSize="10" guides="1" tooltips="1" connect="1" arrows="1" fold="1" page="0" pageScale="1" pageWidth="827" pageHeight="1169" background="none" math="1" shadow="0">
      <root>
        <mxCell id="X5NqExCQtvZxIxQ7pmgY-0" />
        <mxCell id="1" parent="X5NqExCQtvZxIxQ7pmgY-0" />
        <mxCell id="nVzJtyo4WEoCk6vWi9xL-27" value="" style="edgeStyle=orthogonalEdgeStyle;rounded=0;orthogonalLoop=1;jettySize=auto;html=1;" parent="1" source="nVzJtyo4WEoCk6vWi9xL-25" target="nVzJtyo4WEoCk6vWi9xL-26" edge="1">
          <mxGeometry relative="1" as="geometry" />
        </mxCell>
        <mxCell id="nVzJtyo4WEoCk6vWi9xL-29" value="" style="edgeStyle=orthogonalEdgeStyle;rounded=0;orthogonalLoop=1;jettySize=auto;html=1;" parent="1" target="nVzJtyo4WEoCk6vWi9xL-28" edge="1">
          <mxGeometry relative="1" as="geometry">
            <mxPoint x="-250" y="340" as="sourcePoint" />
          </mxGeometry>
        </mxCell>
        <mxCell id="nVzJtyo4WEoCk6vWi9xL-32" value="" style="edgeStyle=orthogonalEdgeStyle;rounded=0;orthogonalLoop=1;jettySize=auto;html=1;" parent="1" source="nVzJtyo4WEoCk6vWi9xL-25" target="nVzJtyo4WEoCk6vWi9xL-31" edge="1">
          <mxGeometry relative="1" as="geometry" />
        </mxCell>
        <mxCell id="nVzJtyo4WEoCk6vWi9xL-34" value="" style="edgeStyle=orthogonalEdgeStyle;rounded=0;orthogonalLoop=1;jettySize=auto;html=1;" parent="1" source="nVzJtyo4WEoCk6vWi9xL-25" target="nVzJtyo4WEoCk6vWi9xL-33" edge="1">
          <mxGeometry relative="1" as="geometry" />
        </mxCell>
        <mxCell id="nVzJtyo4WEoCk6vWi9xL-36" value="" style="edgeStyle=orthogonalEdgeStyle;rounded=0;orthogonalLoop=1;jettySize=auto;html=1;" parent="1" source="nVzJtyo4WEoCk6vWi9xL-25" target="nVzJtyo4WEoCk6vWi9xL-35" edge="1">
          <mxGeometry relative="1" as="geometry" />
        </mxCell>
        <mxCell id="nVzJtyo4WEoCk6vWi9xL-25" value="Formulario de Registro de Usuarios" style="strokeWidth=2;html=1;shape=mxgraph.flowchart.start_1;whiteSpace=wrap;" parent="1" vertex="1">
          <mxGeometry x="-240" y="310" width="100" height="60" as="geometry" />
        </mxCell>
        <mxCell id="i5R9Mgm08C08BxfqZC-r-46" value="" style="edgeStyle=orthogonalEdgeStyle;rounded=0;orthogonalLoop=1;jettySize=auto;html=1;" edge="1" parent="1" source="nVzJtyo4WEoCk6vWi9xL-26" target="i5R9Mgm08C08BxfqZC-r-45">
          <mxGeometry relative="1" as="geometry" />
        </mxCell>
        <mxCell id="i5R9Mgm08C08BxfqZC-r-48" value="" style="edgeStyle=orthogonalEdgeStyle;rounded=0;orthogonalLoop=1;jettySize=auto;html=1;" edge="1" parent="1" source="nVzJtyo4WEoCk6vWi9xL-26" target="i5R9Mgm08C08BxfqZC-r-47">
          <mxGeometry relative="1" as="geometry" />
        </mxCell>
        <mxCell id="nVzJtyo4WEoCk6vWi9xL-26" value="Fecha de Nacimiento" style="whiteSpace=wrap;html=1;strokeWidth=2;" parent="1" vertex="1">
          <mxGeometry x="160" y="310" width="120" height="60" as="geometry" />
        </mxCell>
        <mxCell id="nVzJtyo4WEoCk6vWi9xL-40" value="" style="edgeStyle=orthogonalEdgeStyle;rounded=0;orthogonalLoop=1;jettySize=auto;html=1;" parent="1" source="nVzJtyo4WEoCk6vWi9xL-28" target="nVzJtyo4WEoCk6vWi9xL-39" edge="1">
          <mxGeometry relative="1" as="geometry" />
        </mxCell>
        <mxCell id="nVzJtyo4WEoCk6vWi9xL-42" value="" style="edgeStyle=orthogonalEdgeStyle;rounded=0;orthogonalLoop=1;jettySize=auto;html=1;" parent="1" source="nVzJtyo4WEoCk6vWi9xL-28" target="nVzJtyo4WEoCk6vWi9xL-41" edge="1">
          <mxGeometry relative="1" as="geometry" />
        </mxCell>
        <mxCell id="nVzJtyo4WEoCk6vWi9xL-28" value="Nombre" style="whiteSpace=wrap;html=1;strokeWidth=2;" parent="1" vertex="1">
          <mxGeometry x="-450" y="320" width="120" height="60" as="geometry" />
        </mxCell>
        <mxCell id="nVzJtyo4WEoCk6vWi9xL-76" value="" style="edgeStyle=orthogonalEdgeStyle;rounded=0;orthogonalLoop=1;jettySize=auto;html=1;" parent="1" source="nVzJtyo4WEoCk6vWi9xL-31" target="nVzJtyo4WEoCk6vWi9xL-75" edge="1">
          <mxGeometry relative="1" as="geometry" />
        </mxCell>
        <mxCell id="nVzJtyo4WEoCk6vWi9xL-78" value="" style="edgeStyle=orthogonalEdgeStyle;rounded=0;orthogonalLoop=1;jettySize=auto;html=1;" parent="1" source="nVzJtyo4WEoCk6vWi9xL-31" target="nVzJtyo4WEoCk6vWi9xL-77" edge="1">
          <mxGeometry relative="1" as="geometry" />
        </mxCell>
        <mxCell id="nVzJtyo4WEoCk6vWi9xL-31" value="Correo eléctronico" style="whiteSpace=wrap;html=1;strokeWidth=2;" parent="1" vertex="1">
          <mxGeometry x="-240" y="180" width="120" height="60" as="geometry" />
        </mxCell>
        <mxCell id="i5R9Mgm08C08BxfqZC-r-2" value="" style="edgeStyle=orthogonalEdgeStyle;rounded=0;orthogonalLoop=1;jettySize=auto;html=1;" edge="1" parent="1" source="nVzJtyo4WEoCk6vWi9xL-33" target="i5R9Mgm08C08BxfqZC-r-1">
          <mxGeometry relative="1" as="geometry" />
        </mxCell>
        <mxCell id="i5R9Mgm08C08BxfqZC-r-4" value="" style="edgeStyle=orthogonalEdgeStyle;rounded=0;orthogonalLoop=1;jettySize=auto;html=1;" edge="1" parent="1" source="nVzJtyo4WEoCk6vWi9xL-33" target="i5R9Mgm08C08BxfqZC-r-3">
          <mxGeometry relative="1" as="geometry" />
        </mxCell>
        <mxCell id="nVzJtyo4WEoCk6vWi9xL-33" value="Contraseña" style="whiteSpace=wrap;html=1;strokeWidth=2;" parent="1" vertex="1">
          <mxGeometry x="-360" y="470" width="120" height="60" as="geometry" />
        </mxCell>
        <mxCell id="i5R9Mgm08C08BxfqZC-r-38" value="" style="edgeStyle=orthogonalEdgeStyle;rounded=0;orthogonalLoop=1;jettySize=auto;html=1;" edge="1" parent="1" source="nVzJtyo4WEoCk6vWi9xL-35" target="i5R9Mgm08C08BxfqZC-r-37">
          <mxGeometry relative="1" as="geometry" />
        </mxCell>
        <mxCell id="i5R9Mgm08C08BxfqZC-r-40" value="" style="edgeStyle=orthogonalEdgeStyle;rounded=0;orthogonalLoop=1;jettySize=auto;html=1;" edge="1" parent="1" source="nVzJtyo4WEoCk6vWi9xL-35" target="i5R9Mgm08C08BxfqZC-r-39">
          <mxGeometry relative="1" as="geometry" />
        </mxCell>
        <mxCell id="nVzJtyo4WEoCk6vWi9xL-35" value="Confirmación Contraseña" style="whiteSpace=wrap;html=1;strokeWidth=2;" parent="1" vertex="1">
          <mxGeometry x="-140" y="470" width="120" height="60" as="geometry" />
        </mxCell>
        <mxCell id="nVzJtyo4WEoCk6vWi9xL-44" value="" style="edgeStyle=orthogonalEdgeStyle;rounded=0;orthogonalLoop=1;jettySize=auto;html=1;" parent="1" source="nVzJtyo4WEoCk6vWi9xL-39" target="nVzJtyo4WEoCk6vWi9xL-43" edge="1">
          <mxGeometry relative="1" as="geometry" />
        </mxCell>
        <mxCell id="nVzJtyo4WEoCk6vWi9xL-46" value="" style="edgeStyle=orthogonalEdgeStyle;rounded=0;orthogonalLoop=1;jettySize=auto;html=1;" parent="1" source="nVzJtyo4WEoCk6vWi9xL-39" target="nVzJtyo4WEoCk6vWi9xL-45" edge="1">
          <mxGeometry relative="1" as="geometry" />
        </mxCell>
        <mxCell id="nVzJtyo4WEoCk6vWi9xL-39" value="Texto" style="whiteSpace=wrap;html=1;strokeWidth=2;" parent="1" vertex="1">
          <mxGeometry x="-590" y="240" width="120" height="60" as="geometry" />
        </mxCell>
        <mxCell id="nVzJtyo4WEoCk6vWi9xL-48" value="" style="edgeStyle=orthogonalEdgeStyle;rounded=0;orthogonalLoop=1;jettySize=auto;html=1;" parent="1" source="nVzJtyo4WEoCk6vWi9xL-41" target="nVzJtyo4WEoCk6vWi9xL-47" edge="1">
          <mxGeometry relative="1" as="geometry" />
        </mxCell>
        <mxCell id="nVzJtyo4WEoCk6vWi9xL-50" value="" style="edgeStyle=orthogonalEdgeStyle;rounded=0;orthogonalLoop=1;jettySize=auto;html=1;" parent="1" source="nVzJtyo4WEoCk6vWi9xL-41" target="nVzJtyo4WEoCk6vWi9xL-49" edge="1">
          <mxGeometry relative="1" as="geometry" />
        </mxCell>
        <mxCell id="nVzJtyo4WEoCk6vWi9xL-52" value="" style="edgeStyle=orthogonalEdgeStyle;rounded=0;orthogonalLoop=1;jettySize=auto;html=1;" parent="1" source="nVzJtyo4WEoCk6vWi9xL-41" target="nVzJtyo4WEoCk6vWi9xL-51" edge="1">
          <mxGeometry relative="1" as="geometry" />
        </mxCell>
        <mxCell id="nVzJtyo4WEoCk6vWi9xL-41" value="Longitud" style="whiteSpace=wrap;html=1;strokeWidth=2;" parent="1" vertex="1">
          <mxGeometry x="-590" y="390" width="120" height="60" as="geometry" />
        </mxCell>
        <mxCell id="nVzJtyo4WEoCk6vWi9xL-59" value="" style="edgeStyle=orthogonalEdgeStyle;rounded=0;orthogonalLoop=1;jettySize=auto;html=1;" parent="1" source="nVzJtyo4WEoCk6vWi9xL-43" target="nVzJtyo4WEoCk6vWi9xL-58" edge="1">
          <mxGeometry relative="1" as="geometry" />
        </mxCell>
        <mxCell id="nVzJtyo4WEoCk6vWi9xL-43" value="Texto válido" style="whiteSpace=wrap;html=1;strokeWidth=2;" parent="1" vertex="1">
          <mxGeometry x="-750" y="180" width="120" height="60" as="geometry" />
        </mxCell>
        <mxCell id="nVzJtyo4WEoCk6vWi9xL-61" value="" style="edgeStyle=orthogonalEdgeStyle;rounded=0;orthogonalLoop=1;jettySize=auto;html=1;" parent="1" source="nVzJtyo4WEoCk6vWi9xL-45" target="nVzJtyo4WEoCk6vWi9xL-60" edge="1">
          <mxGeometry relative="1" as="geometry" />
        </mxCell>
        <mxCell id="nVzJtyo4WEoCk6vWi9xL-63" value="" style="edgeStyle=orthogonalEdgeStyle;rounded=0;orthogonalLoop=1;jettySize=auto;html=1;" parent="1" source="nVzJtyo4WEoCk6vWi9xL-45" target="nVzJtyo4WEoCk6vWi9xL-62" edge="1">
          <mxGeometry relative="1" as="geometry" />
        </mxCell>
        <mxCell id="nVzJtyo4WEoCk6vWi9xL-45" value="No válidos" style="whiteSpace=wrap;html=1;strokeWidth=2;" parent="1" vertex="1">
          <mxGeometry x="-750" y="280" width="120" height="60" as="geometry" />
        </mxCell>
        <mxCell id="nVzJtyo4WEoCk6vWi9xL-65" value="" style="edgeStyle=orthogonalEdgeStyle;rounded=0;orthogonalLoop=1;jettySize=auto;html=1;" parent="1" source="nVzJtyo4WEoCk6vWi9xL-47" target="nVzJtyo4WEoCk6vWi9xL-64" edge="1">
          <mxGeometry relative="1" as="geometry" />
        </mxCell>
        <mxCell id="nVzJtyo4WEoCk6vWi9xL-67" value="" style="edgeStyle=orthogonalEdgeStyle;rounded=0;orthogonalLoop=1;jettySize=auto;html=1;" parent="1" source="nVzJtyo4WEoCk6vWi9xL-47" target="nVzJtyo4WEoCk6vWi9xL-66" edge="1">
          <mxGeometry relative="1" as="geometry" />
        </mxCell>
        <mxCell id="nVzJtyo4WEoCk6vWi9xL-47" value="5 y 50 char" style="whiteSpace=wrap;html=1;strokeWidth=2;" parent="1" vertex="1">
          <mxGeometry x="-750" y="370" width="120" height="60" as="geometry" />
        </mxCell>
        <mxCell id="nVzJtyo4WEoCk6vWi9xL-69" value="" style="edgeStyle=orthogonalEdgeStyle;rounded=0;orthogonalLoop=1;jettySize=auto;html=1;" parent="1" source="nVzJtyo4WEoCk6vWi9xL-49" target="nVzJtyo4WEoCk6vWi9xL-68" edge="1">
          <mxGeometry relative="1" as="geometry" />
        </mxCell>
        <mxCell id="nVzJtyo4WEoCk6vWi9xL-49" value="- 5 char" style="whiteSpace=wrap;html=1;strokeWidth=2;" parent="1" vertex="1">
          <mxGeometry x="-750" y="460" width="120" height="60" as="geometry" />
        </mxCell>
        <mxCell id="nVzJtyo4WEoCk6vWi9xL-71" value="" style="edgeStyle=orthogonalEdgeStyle;rounded=0;orthogonalLoop=1;jettySize=auto;html=1;" parent="1" source="nVzJtyo4WEoCk6vWi9xL-51" target="nVzJtyo4WEoCk6vWi9xL-70" edge="1">
          <mxGeometry relative="1" as="geometry" />
        </mxCell>
        <mxCell id="nVzJtyo4WEoCk6vWi9xL-51" value="+ 50 char" style="whiteSpace=wrap;html=1;strokeWidth=2;" parent="1" vertex="1">
          <mxGeometry x="-750" y="540" width="120" height="60" as="geometry" />
        </mxCell>
        <mxCell id="nVzJtyo4WEoCk6vWi9xL-72" style="edgeStyle=orthogonalEdgeStyle;rounded=0;orthogonalLoop=1;jettySize=auto;html=1;exitX=0.5;exitY=0;exitDx=0;exitDy=0;entryX=0;entryY=0.5;entryDx=0;entryDy=0;" parent="1" source="nVzJtyo4WEoCk6vWi9xL-56" target="nVzJtyo4WEoCk6vWi9xL-41" edge="1">
          <mxGeometry relative="1" as="geometry" />
        </mxCell>
        <mxCell id="nVzJtyo4WEoCk6vWi9xL-74" value="" style="edgeStyle=orthogonalEdgeStyle;rounded=0;orthogonalLoop=1;jettySize=auto;html=1;" parent="1" source="nVzJtyo4WEoCk6vWi9xL-56" target="nVzJtyo4WEoCk6vWi9xL-73" edge="1">
          <mxGeometry relative="1" as="geometry" />
        </mxCell>
        <mxCell id="nVzJtyo4WEoCk6vWi9xL-56" value="Nombre completo?" style="whiteSpace=wrap;html=1;strokeWidth=2;" parent="1" vertex="1">
          <mxGeometry x="-750" y="630" width="120" height="60" as="geometry" />
        </mxCell>
        <mxCell id="nVzJtyo4WEoCk6vWi9xL-58" value="Eduardo (7 char)" style="whiteSpace=wrap;html=1;strokeWidth=2;" parent="1" vertex="1">
          <mxGeometry x="-950" y="120" width="120" height="60" as="geometry" />
        </mxCell>
        <mxCell id="nVzJtyo4WEoCk6vWi9xL-60" value="1234567" style="whiteSpace=wrap;html=1;strokeWidth=2;" parent="1" vertex="1">
          <mxGeometry x="-950" y="230" width="120" height="60" as="geometry" />
        </mxCell>
        <mxCell id="nVzJtyo4WEoCk6vWi9xL-62" value="!&quot;#$%&amp;amp;/" style="whiteSpace=wrap;html=1;strokeWidth=2;" parent="1" vertex="1">
          <mxGeometry x="-950" y="290" width="120" height="60" as="geometry" />
        </mxCell>
        <mxCell id="nVzJtyo4WEoCk6vWi9xL-64" value="Mario (5 char)" style="whiteSpace=wrap;html=1;strokeWidth=2;" parent="1" vertex="1">
          <mxGeometry x="-1110" y="340" width="120" height="60" as="geometry" />
        </mxCell>
        <mxCell id="nVzJtyo4WEoCk6vWi9xL-66" value="&lt;div style=&quot;text-align: justify;&quot;&gt;&lt;span style=&quot;background-color: transparent; color: light-dark(rgb(0, 0, 0), rgb(255, 255, 255));&quot;&gt;MarioMarioMarioMarioMarioMarioMarioMarioMarioMario (50 char)&lt;/span&gt;&lt;/div&gt;" style="whiteSpace=wrap;html=1;strokeWidth=2;" parent="1" vertex="1">
          <mxGeometry x="-1110" y="410" width="120" height="60" as="geometry" />
        </mxCell>
        <mxCell id="nVzJtyo4WEoCk6vWi9xL-68" value="Yaz" style="whiteSpace=wrap;html=1;strokeWidth=2;" parent="1" vertex="1">
          <mxGeometry x="-960" y="460" width="120" height="60" as="geometry" />
        </mxCell>
        <mxCell id="nVzJtyo4WEoCk6vWi9xL-70" value="&lt;span style=&quot;text-align: justify;&quot;&gt;MarioMarioMarioMarioMarioMarioMarioMarioMarioMarioMario&lt;/span&gt;&lt;div&gt;&lt;span style=&quot;text-align: justify;&quot;&gt;(55 char)&lt;/span&gt;&lt;/div&gt;&lt;div&gt;&lt;span style=&quot;text-align: justify;&quot;&gt;&lt;br&gt;&lt;/span&gt;&lt;/div&gt;" style="whiteSpace=wrap;html=1;strokeWidth=2;" parent="1" vertex="1">
          <mxGeometry x="-960" y="550" width="120" height="60" as="geometry" />
        </mxCell>
        <mxCell id="nVzJtyo4WEoCk6vWi9xL-73" value="Mario Cruz Valades" style="whiteSpace=wrap;html=1;strokeWidth=2;" parent="1" vertex="1">
          <mxGeometry x="-960" y="640" width="120" height="60" as="geometry" />
        </mxCell>
        <mxCell id="nVzJtyo4WEoCk6vWi9xL-75" value="mar_cr_uval@hotmail.com" style="whiteSpace=wrap;html=1;strokeWidth=2;" parent="1" vertex="1">
          <mxGeometry x="-340" y="80" width="120" height="60" as="geometry" />
        </mxCell>
        <mxCell id="nVzJtyo4WEoCk6vWi9xL-77" value="mar_cr_uvalhotmail.com" style="whiteSpace=wrap;html=1;strokeWidth=2;" parent="1" vertex="1">
          <mxGeometry x="-140" y="80" width="120" height="60" as="geometry" />
        </mxCell>
        <mxCell id="i5R9Mgm08C08BxfqZC-r-6" value="" style="edgeStyle=orthogonalEdgeStyle;rounded=0;orthogonalLoop=1;jettySize=auto;html=1;" edge="1" parent="1" source="i5R9Mgm08C08BxfqZC-r-1" target="i5R9Mgm08C08BxfqZC-r-5">
          <mxGeometry relative="1" as="geometry" />
        </mxCell>
        <mxCell id="i5R9Mgm08C08BxfqZC-r-1" value="Cáracteres" style="whiteSpace=wrap;html=1;strokeWidth=2;" vertex="1" parent="1">
          <mxGeometry x="-450" y="570" width="120" height="60" as="geometry" />
        </mxCell>
        <mxCell id="i5R9Mgm08C08BxfqZC-r-8" value="" style="edgeStyle=orthogonalEdgeStyle;rounded=0;orthogonalLoop=1;jettySize=auto;html=1;" edge="1" parent="1" source="i5R9Mgm08C08BxfqZC-r-3" target="i5R9Mgm08C08BxfqZC-r-7">
          <mxGeometry relative="1" as="geometry" />
        </mxCell>
        <mxCell id="i5R9Mgm08C08BxfqZC-r-10" value="" style="edgeStyle=orthogonalEdgeStyle;rounded=0;orthogonalLoop=1;jettySize=auto;html=1;" edge="1" parent="1" source="i5R9Mgm08C08BxfqZC-r-3" target="i5R9Mgm08C08BxfqZC-r-9">
          <mxGeometry relative="1" as="geometry" />
        </mxCell>
        <mxCell id="i5R9Mgm08C08BxfqZC-r-12" value="" style="edgeStyle=orthogonalEdgeStyle;rounded=0;orthogonalLoop=1;jettySize=auto;html=1;" edge="1" parent="1" source="i5R9Mgm08C08BxfqZC-r-3" target="i5R9Mgm08C08BxfqZC-r-11">
          <mxGeometry relative="1" as="geometry" />
        </mxCell>
        <mxCell id="i5R9Mgm08C08BxfqZC-r-14" value="" style="edgeStyle=orthogonalEdgeStyle;rounded=0;orthogonalLoop=1;jettySize=auto;html=1;" edge="1" parent="1" source="i5R9Mgm08C08BxfqZC-r-3" target="i5R9Mgm08C08BxfqZC-r-13">
          <mxGeometry relative="1" as="geometry" />
        </mxCell>
        <mxCell id="i5R9Mgm08C08BxfqZC-r-3" value="Longitud" style="whiteSpace=wrap;html=1;strokeWidth=2;" vertex="1" parent="1">
          <mxGeometry x="-280" y="560" width="120" height="60" as="geometry" />
        </mxCell>
        <mxCell id="i5R9Mgm08C08BxfqZC-r-28" value="" style="edgeStyle=orthogonalEdgeStyle;rounded=0;orthogonalLoop=1;jettySize=auto;html=1;" edge="1" parent="1" source="i5R9Mgm08C08BxfqZC-r-5" target="i5R9Mgm08C08BxfqZC-r-27">
          <mxGeometry relative="1" as="geometry" />
        </mxCell>
        <mxCell id="i5R9Mgm08C08BxfqZC-r-32" value="" style="edgeStyle=orthogonalEdgeStyle;rounded=0;orthogonalLoop=1;jettySize=auto;html=1;" edge="1" parent="1" source="i5R9Mgm08C08BxfqZC-r-5" target="i5R9Mgm08C08BxfqZC-r-31">
          <mxGeometry relative="1" as="geometry" />
        </mxCell>
        <mxCell id="i5R9Mgm08C08BxfqZC-r-5" value="Todas letras mínusculas" style="whiteSpace=wrap;html=1;strokeWidth=2;" vertex="1" parent="1">
          <mxGeometry x="-450" y="700" width="120" height="60" as="geometry" />
        </mxCell>
        <mxCell id="i5R9Mgm08C08BxfqZC-r-16" value="" style="edgeStyle=orthogonalEdgeStyle;rounded=0;orthogonalLoop=1;jettySize=auto;html=1;" edge="1" parent="1" source="i5R9Mgm08C08BxfqZC-r-7" target="i5R9Mgm08C08BxfqZC-r-15">
          <mxGeometry relative="1" as="geometry" />
        </mxCell>
        <mxCell id="i5R9Mgm08C08BxfqZC-r-20" value="" style="edgeStyle=orthogonalEdgeStyle;rounded=0;orthogonalLoop=1;jettySize=auto;html=1;" edge="1" parent="1" source="i5R9Mgm08C08BxfqZC-r-7" target="i5R9Mgm08C08BxfqZC-r-19">
          <mxGeometry relative="1" as="geometry" />
        </mxCell>
        <mxCell id="i5R9Mgm08C08BxfqZC-r-7" value="8 y 16 char" style="whiteSpace=wrap;html=1;strokeWidth=2;" vertex="1" parent="1">
          <mxGeometry x="-280" y="700" width="120" height="60" as="geometry" />
        </mxCell>
        <mxCell id="i5R9Mgm08C08BxfqZC-r-22" value="" style="edgeStyle=orthogonalEdgeStyle;rounded=0;orthogonalLoop=1;jettySize=auto;html=1;" edge="1" parent="1" source="i5R9Mgm08C08BxfqZC-r-9" target="i5R9Mgm08C08BxfqZC-r-21">
          <mxGeometry relative="1" as="geometry" />
        </mxCell>
        <mxCell id="i5R9Mgm08C08BxfqZC-r-9" value="-8 char" style="whiteSpace=wrap;html=1;strokeWidth=2;" vertex="1" parent="1">
          <mxGeometry x="-280" y="780" width="120" height="60" as="geometry" />
        </mxCell>
        <mxCell id="i5R9Mgm08C08BxfqZC-r-24" value="" style="edgeStyle=orthogonalEdgeStyle;rounded=0;orthogonalLoop=1;jettySize=auto;html=1;" edge="1" parent="1" source="i5R9Mgm08C08BxfqZC-r-11" target="i5R9Mgm08C08BxfqZC-r-23">
          <mxGeometry relative="1" as="geometry" />
        </mxCell>
        <mxCell id="i5R9Mgm08C08BxfqZC-r-11" value="+16 char" style="whiteSpace=wrap;html=1;strokeWidth=2;" vertex="1" parent="1">
          <mxGeometry x="-280" y="860" width="120" height="60" as="geometry" />
        </mxCell>
        <mxCell id="i5R9Mgm08C08BxfqZC-r-26" value="" style="edgeStyle=orthogonalEdgeStyle;rounded=0;orthogonalLoop=1;jettySize=auto;html=1;" edge="1" parent="1" source="i5R9Mgm08C08BxfqZC-r-13" target="i5R9Mgm08C08BxfqZC-r-25">
          <mxGeometry relative="1" as="geometry" />
        </mxCell>
        <mxCell id="i5R9Mgm08C08BxfqZC-r-13" value="12 char" style="whiteSpace=wrap;html=1;strokeWidth=2;" vertex="1" parent="1">
          <mxGeometry x="-280" y="940" width="120" height="60" as="geometry" />
        </mxCell>
        <mxCell id="i5R9Mgm08C08BxfqZC-r-15" value="Enp8migu (8 char)" style="whiteSpace=wrap;html=1;strokeWidth=2;" vertex="1" parent="1">
          <mxGeometry x="-120" y="640" width="120" height="60" as="geometry" />
        </mxCell>
        <mxCell id="i5R9Mgm08C08BxfqZC-r-19" value="Enp8miguelllllll (16 char)" style="whiteSpace=wrap;html=1;strokeWidth=2;" vertex="1" parent="1">
          <mxGeometry x="-120" y="720" width="120" height="60" as="geometry" />
        </mxCell>
        <mxCell id="i5R9Mgm08C08BxfqZC-r-21" value="Enp8mi (6 char)" style="whiteSpace=wrap;html=1;strokeWidth=2;" vertex="1" parent="1">
          <mxGeometry x="-120" y="800" width="120" height="60" as="geometry" />
        </mxCell>
        <mxCell id="i5R9Mgm08C08BxfqZC-r-23" value="Enp8migueEnp8migue (18 char)" style="whiteSpace=wrap;html=1;strokeWidth=2;" vertex="1" parent="1">
          <mxGeometry x="-120" y="880" width="120" height="60" as="geometry" />
        </mxCell>
        <mxCell id="i5R9Mgm08C08BxfqZC-r-25" value="GatoyLicen06 (12 char)" style="whiteSpace=wrap;html=1;strokeWidth=2;" vertex="1" parent="1">
          <mxGeometry x="-120" y="960" width="120" height="60" as="geometry" />
        </mxCell>
        <mxCell id="i5R9Mgm08C08BxfqZC-r-30" value="" style="edgeStyle=orthogonalEdgeStyle;rounded=0;orthogonalLoop=1;jettySize=auto;html=1;" edge="1" parent="1" source="i5R9Mgm08C08BxfqZC-r-27" target="i5R9Mgm08C08BxfqZC-r-29">
          <mxGeometry relative="1" as="geometry" />
        </mxCell>
        <mxCell id="i5R9Mgm08C08BxfqZC-r-34" value="" style="edgeStyle=orthogonalEdgeStyle;rounded=0;orthogonalLoop=1;jettySize=auto;html=1;" edge="1" parent="1" source="i5R9Mgm08C08BxfqZC-r-27" target="i5R9Mgm08C08BxfqZC-r-33">
          <mxGeometry relative="1" as="geometry" />
        </mxCell>
        <mxCell id="i5R9Mgm08C08BxfqZC-r-27" value="Todas números" style="whiteSpace=wrap;html=1;strokeWidth=2;" vertex="1" parent="1">
          <mxGeometry x="-450" y="790" width="120" height="60" as="geometry" />
        </mxCell>
        <mxCell id="i5R9Mgm08C08BxfqZC-r-36" value="" style="edgeStyle=orthogonalEdgeStyle;rounded=0;orthogonalLoop=1;jettySize=auto;html=1;" edge="1" parent="1" source="i5R9Mgm08C08BxfqZC-r-29" target="i5R9Mgm08C08BxfqZC-r-35">
          <mxGeometry relative="1" as="geometry" />
        </mxCell>
        <mxCell id="i5R9Mgm08C08BxfqZC-r-29" value="Todas mayúsculas" style="whiteSpace=wrap;html=1;strokeWidth=2;" vertex="1" parent="1">
          <mxGeometry x="-450" y="880" width="120" height="60" as="geometry" />
        </mxCell>
        <mxCell id="i5R9Mgm08C08BxfqZC-r-31" value="contraseña" style="whiteSpace=wrap;html=1;strokeWidth=2;" vertex="1" parent="1">
          <mxGeometry x="-590" y="700" width="120" height="60" as="geometry" />
        </mxCell>
        <mxCell id="i5R9Mgm08C08BxfqZC-r-33" value="012345678912" style="whiteSpace=wrap;html=1;strokeWidth=2;" vertex="1" parent="1">
          <mxGeometry x="-590" y="790" width="120" height="60" as="geometry" />
        </mxCell>
        <mxCell id="i5R9Mgm08C08BxfqZC-r-35" value="CONTRASEÑA" style="whiteSpace=wrap;html=1;strokeWidth=2;" vertex="1" parent="1">
          <mxGeometry x="-590" y="890" width="120" height="60" as="geometry" />
        </mxCell>
        <mxCell id="i5R9Mgm08C08BxfqZC-r-37" value="Contraseña igual" style="whiteSpace=wrap;html=1;strokeWidth=2;" vertex="1" parent="1">
          <mxGeometry x="20" y="410" width="120" height="60" as="geometry" />
        </mxCell>
        <mxCell id="i5R9Mgm08C08BxfqZC-r-39" value="Contraseña no igual" style="whiteSpace=wrap;html=1;strokeWidth=2;" vertex="1" parent="1">
          <mxGeometry x="20" y="500" width="120" height="60" as="geometry" />
        </mxCell>
        <mxCell id="i5R9Mgm08C08BxfqZC-r-50" value="" style="edgeStyle=orthogonalEdgeStyle;rounded=0;orthogonalLoop=1;jettySize=auto;html=1;" edge="1" parent="1" source="i5R9Mgm08C08BxfqZC-r-45" target="i5R9Mgm08C08BxfqZC-r-49">
          <mxGeometry relative="1" as="geometry" />
        </mxCell>
        <mxCell id="i5R9Mgm08C08BxfqZC-r-52" value="" style="edgeStyle=orthogonalEdgeStyle;rounded=0;orthogonalLoop=1;jettySize=auto;html=1;" edge="1" parent="1" source="i5R9Mgm08C08BxfqZC-r-45" target="i5R9Mgm08C08BxfqZC-r-51">
          <mxGeometry relative="1" as="geometry" />
        </mxCell>
        <mxCell id="i5R9Mgm08C08BxfqZC-r-54" value="" style="edgeStyle=orthogonalEdgeStyle;rounded=0;orthogonalLoop=1;jettySize=auto;html=1;" edge="1" parent="1" source="i5R9Mgm08C08BxfqZC-r-45" target="i5R9Mgm08C08BxfqZC-r-53">
          <mxGeometry relative="1" as="geometry" />
        </mxCell>
        <mxCell id="i5R9Mgm08C08BxfqZC-r-45" value="Válida" style="whiteSpace=wrap;html=1;strokeWidth=2;" vertex="1" parent="1">
          <mxGeometry x="310" y="230" width="120" height="60" as="geometry" />
        </mxCell>
        <mxCell id="i5R9Mgm08C08BxfqZC-r-56" value="" style="edgeStyle=orthogonalEdgeStyle;rounded=0;orthogonalLoop=1;jettySize=auto;html=1;" edge="1" parent="1" source="i5R9Mgm08C08BxfqZC-r-47" target="i5R9Mgm08C08BxfqZC-r-55">
          <mxGeometry relative="1" as="geometry" />
        </mxCell>
        <mxCell id="i5R9Mgm08C08BxfqZC-r-58" value="" style="edgeStyle=orthogonalEdgeStyle;rounded=0;orthogonalLoop=1;jettySize=auto;html=1;" edge="1" parent="1" target="i5R9Mgm08C08BxfqZC-r-57">
          <mxGeometry relative="1" as="geometry">
            <mxPoint x="430" y="400" as="sourcePoint" />
          </mxGeometry>
        </mxCell>
        <mxCell id="i5R9Mgm08C08BxfqZC-r-47" value="Inválida" style="whiteSpace=wrap;html=1;strokeWidth=2;" vertex="1" parent="1">
          <mxGeometry x="320" y="370" width="120" height="60" as="geometry" />
        </mxCell>
        <mxCell id="i5R9Mgm08C08BxfqZC-r-49" value="14/03/2012 (Mínimo 13 años)" style="whiteSpace=wrap;html=1;strokeWidth=2;" vertex="1" parent="1">
          <mxGeometry x="470" y="140" width="120" height="60" as="geometry" />
        </mxCell>
        <mxCell id="i5R9Mgm08C08BxfqZC-r-51" value="06/08/1996" style="whiteSpace=wrap;html=1;strokeWidth=2;" vertex="1" parent="1">
          <mxGeometry x="500" y="270" width="120" height="60" as="geometry" />
        </mxCell>
        <mxCell id="i5R9Mgm08C08BxfqZC-r-53" value="¿Formato?" style="whiteSpace=wrap;html=1;strokeWidth=2;" vertex="1" parent="1">
          <mxGeometry x="310" y="140" width="120" height="60" as="geometry" />
        </mxCell>
        <mxCell id="i5R9Mgm08C08BxfqZC-r-55" value="Fecha actual" style="whiteSpace=wrap;html=1;strokeWidth=2;" vertex="1" parent="1">
          <mxGeometry x="480" y="370" width="120" height="60" as="geometry" />
        </mxCell>
        <mxCell id="i5R9Mgm08C08BxfqZC-r-57" value="Fecha en el futuro" style="whiteSpace=wrap;html=1;strokeWidth=2;" vertex="1" parent="1">
          <mxGeometry x="480" y="440" width="120" height="60" as="geometry" />
        </mxCell>
      </root>
    </mxGraphModel>
  </diagram>
  <diagram id="mNKILlPvFAak9WD5kc1c" name="Diagrama de Flujo">
    <mxGraphModel dx="1120" dy="479" grid="1" gridSize="10" guides="1" tooltips="1" connect="1" arrows="1" fold="1" page="1" pageScale="1" pageWidth="827" pageHeight="1169" math="0" shadow="0">
      <root>
        <mxCell id="0" />
        <mxCell id="1" parent="0" />
        <mxCell id="X5c3_fw7_WyNCvutC-Mr-2" value="" style="edgeStyle=orthogonalEdgeStyle;rounded=0;orthogonalLoop=1;jettySize=auto;html=1;" edge="1" parent="1" source="ENbRzPAo_vs_LuHW0Z7b-1" target="X5c3_fw7_WyNCvutC-Mr-1">
          <mxGeometry relative="1" as="geometry" />
        </mxCell>
        <mxCell id="ENbRzPAo_vs_LuHW0Z7b-1" value="Empezar" style="strokeWidth=2;html=1;shape=mxgraph.flowchart.start_1;whiteSpace=wrap;" parent="1" vertex="1">
          <mxGeometry x="364" y="20" width="100" height="60" as="geometry" />
        </mxCell>
        <mxCell id="X5c3_fw7_WyNCvutC-Mr-4" value="" style="edgeStyle=orthogonalEdgeStyle;rounded=0;orthogonalLoop=1;jettySize=auto;html=1;" edge="1" parent="1" source="X5c3_fw7_WyNCvutC-Mr-1" target="X5c3_fw7_WyNCvutC-Mr-3">
          <mxGeometry relative="1" as="geometry" />
        </mxCell>
        <mxCell id="X5c3_fw7_WyNCvutC-Mr-1" value="Escribir un nombre" style="whiteSpace=wrap;html=1;strokeWidth=2;" vertex="1" parent="1">
          <mxGeometry x="354" y="120" width="120" height="60" as="geometry" />
        </mxCell>
        <mxCell id="X5c3_fw7_WyNCvutC-Mr-6" value="" style="edgeStyle=orthogonalEdgeStyle;rounded=0;orthogonalLoop=1;jettySize=auto;html=1;" edge="1" parent="1" source="X5c3_fw7_WyNCvutC-Mr-3" target="X5c3_fw7_WyNCvutC-Mr-5">
          <mxGeometry relative="1" as="geometry" />
        </mxCell>
        <mxCell id="X5c3_fw7_WyNCvutC-Mr-9" value="" style="edgeStyle=orthogonalEdgeStyle;rounded=0;orthogonalLoop=1;jettySize=auto;html=1;" edge="1" parent="1" source="X5c3_fw7_WyNCvutC-Mr-3" target="X5c3_fw7_WyNCvutC-Mr-8">
          <mxGeometry relative="1" as="geometry" />
        </mxCell>
        <mxCell id="X5c3_fw7_WyNCvutC-Mr-3" value="¿El nombre está bien escrito?" style="rhombus;whiteSpace=wrap;html=1;strokeWidth=2;" vertex="1" parent="1">
          <mxGeometry x="330" y="210" width="170" height="100" as="geometry" />
        </mxCell>
        <mxCell id="X5c3_fw7_WyNCvutC-Mr-7" style="edgeStyle=orthogonalEdgeStyle;rounded=0;orthogonalLoop=1;jettySize=auto;html=1;exitX=0;exitY=0.5;exitDx=0;exitDy=0;entryX=0;entryY=0.5;entryDx=0;entryDy=0;" edge="1" parent="1" source="X5c3_fw7_WyNCvutC-Mr-5" target="X5c3_fw7_WyNCvutC-Mr-1">
          <mxGeometry relative="1" as="geometry" />
        </mxCell>
        <mxCell id="X5c3_fw7_WyNCvutC-Mr-5" value="Mostrar mensaje de error" style="whiteSpace=wrap;html=1;strokeWidth=2;" vertex="1" parent="1">
          <mxGeometry x="160" y="230" width="120" height="60" as="geometry" />
        </mxCell>
        <mxCell id="X5c3_fw7_WyNCvutC-Mr-13" value="" style="edgeStyle=orthogonalEdgeStyle;rounded=0;orthogonalLoop=1;jettySize=auto;html=1;" edge="1" parent="1" source="X5c3_fw7_WyNCvutC-Mr-8" target="X5c3_fw7_WyNCvutC-Mr-12">
          <mxGeometry relative="1" as="geometry" />
        </mxCell>
        <mxCell id="X5c3_fw7_WyNCvutC-Mr-8" value="Escribir un correo electrónico" style="whiteSpace=wrap;html=1;strokeWidth=2;" vertex="1" parent="1">
          <mxGeometry x="354" y="350" width="120" height="60" as="geometry" />
        </mxCell>
        <mxCell id="X5c3_fw7_WyNCvutC-Mr-15" value="" style="edgeStyle=orthogonalEdgeStyle;rounded=0;orthogonalLoop=1;jettySize=auto;html=1;" edge="1" parent="1" source="X5c3_fw7_WyNCvutC-Mr-12" target="X5c3_fw7_WyNCvutC-Mr-14">
          <mxGeometry relative="1" as="geometry" />
        </mxCell>
        <mxCell id="X5c3_fw7_WyNCvutC-Mr-18" value="" style="edgeStyle=orthogonalEdgeStyle;rounded=0;orthogonalLoop=1;jettySize=auto;html=1;" edge="1" parent="1" source="X5c3_fw7_WyNCvutC-Mr-12" target="X5c3_fw7_WyNCvutC-Mr-17">
          <mxGeometry relative="1" as="geometry" />
        </mxCell>
        <mxCell id="X5c3_fw7_WyNCvutC-Mr-12" value="¿Es válido?" style="rhombus;whiteSpace=wrap;html=1;strokeWidth=2;" vertex="1" parent="1">
          <mxGeometry x="330" y="450" width="170" height="100" as="geometry" />
        </mxCell>
        <mxCell id="X5c3_fw7_WyNCvutC-Mr-16" style="edgeStyle=orthogonalEdgeStyle;rounded=0;orthogonalLoop=1;jettySize=auto;html=1;exitX=0;exitY=0.5;exitDx=0;exitDy=0;entryX=0;entryY=0.5;entryDx=0;entryDy=0;" edge="1" parent="1" source="X5c3_fw7_WyNCvutC-Mr-14" target="X5c3_fw7_WyNCvutC-Mr-8">
          <mxGeometry relative="1" as="geometry" />
        </mxCell>
        <mxCell id="X5c3_fw7_WyNCvutC-Mr-14" value="Mostrar mensaje de error" style="whiteSpace=wrap;html=1;strokeWidth=2;" vertex="1" parent="1">
          <mxGeometry x="160" y="480" width="120" height="60" as="geometry" />
        </mxCell>
        <mxCell id="X5c3_fw7_WyNCvutC-Mr-20" value="" style="edgeStyle=orthogonalEdgeStyle;rounded=0;orthogonalLoop=1;jettySize=auto;html=1;" edge="1" parent="1" source="X5c3_fw7_WyNCvutC-Mr-17" target="X5c3_fw7_WyNCvutC-Mr-19">
          <mxGeometry relative="1" as="geometry" />
        </mxCell>
        <mxCell id="X5c3_fw7_WyNCvutC-Mr-17" value="Escribir una contraseña" style="whiteSpace=wrap;html=1;strokeWidth=2;" vertex="1" parent="1">
          <mxGeometry x="355" y="600" width="120" height="60" as="geometry" />
        </mxCell>
        <mxCell id="X5c3_fw7_WyNCvutC-Mr-22" value="" style="edgeStyle=orthogonalEdgeStyle;rounded=0;orthogonalLoop=1;jettySize=auto;html=1;" edge="1" parent="1" source="X5c3_fw7_WyNCvutC-Mr-19" target="X5c3_fw7_WyNCvutC-Mr-21">
          <mxGeometry relative="1" as="geometry" />
        </mxCell>
        <mxCell id="X5c3_fw7_WyNCvutC-Mr-24" value="" style="edgeStyle=orthogonalEdgeStyle;rounded=0;orthogonalLoop=1;jettySize=auto;html=1;" edge="1" parent="1" source="X5c3_fw7_WyNCvutC-Mr-19" target="X5c3_fw7_WyNCvutC-Mr-23">
          <mxGeometry relative="1" as="geometry" />
        </mxCell>
        <mxCell id="X5c3_fw7_WyNCvutC-Mr-19" value="¿Es válida? ¿tiene todos los requisitos?" style="rhombus;whiteSpace=wrap;html=1;strokeWidth=2;" vertex="1" parent="1">
          <mxGeometry x="330" y="710" width="170" height="100" as="geometry" />
        </mxCell>
        <mxCell id="X5c3_fw7_WyNCvutC-Mr-33" style="edgeStyle=orthogonalEdgeStyle;rounded=0;orthogonalLoop=1;jettySize=auto;html=1;exitX=0;exitY=0.5;exitDx=0;exitDy=0;entryX=0;entryY=0.5;entryDx=0;entryDy=0;" edge="1" parent="1" source="X5c3_fw7_WyNCvutC-Mr-21" target="X5c3_fw7_WyNCvutC-Mr-17">
          <mxGeometry relative="1" as="geometry" />
        </mxCell>
        <mxCell id="X5c3_fw7_WyNCvutC-Mr-21" value="Mostrar mensaje de error" style="whiteSpace=wrap;html=1;strokeWidth=2;" vertex="1" parent="1">
          <mxGeometry x="160" y="740" width="120" height="60" as="geometry" />
        </mxCell>
        <mxCell id="X5c3_fw7_WyNCvutC-Mr-26" value="" style="edgeStyle=orthogonalEdgeStyle;rounded=0;orthogonalLoop=1;jettySize=auto;html=1;" edge="1" parent="1" target="X5c3_fw7_WyNCvutC-Mr-25">
          <mxGeometry relative="1" as="geometry">
            <mxPoint x="408" y="920" as="sourcePoint" />
          </mxGeometry>
        </mxCell>
        <mxCell id="X5c3_fw7_WyNCvutC-Mr-23" value="Reescribir contraseña en Confirmación Constraseña" style="whiteSpace=wrap;html=1;strokeWidth=2;" vertex="1" parent="1">
          <mxGeometry x="354" y="860" width="120" height="60" as="geometry" />
        </mxCell>
        <mxCell id="X5c3_fw7_WyNCvutC-Mr-28" value="" style="edgeStyle=orthogonalEdgeStyle;rounded=0;orthogonalLoop=1;jettySize=auto;html=1;" edge="1" parent="1" source="X5c3_fw7_WyNCvutC-Mr-25" target="X5c3_fw7_WyNCvutC-Mr-27">
          <mxGeometry relative="1" as="geometry" />
        </mxCell>
        <mxCell id="X5c3_fw7_WyNCvutC-Mr-30" value="" style="edgeStyle=orthogonalEdgeStyle;rounded=0;orthogonalLoop=1;jettySize=auto;html=1;" edge="1" parent="1" source="X5c3_fw7_WyNCvutC-Mr-25" target="X5c3_fw7_WyNCvutC-Mr-29">
          <mxGeometry relative="1" as="geometry" />
        </mxCell>
        <mxCell id="X5c3_fw7_WyNCvutC-Mr-25" value="¿Es la misma contraseña?" style="rhombus;whiteSpace=wrap;html=1;strokeWidth=2;" vertex="1" parent="1">
          <mxGeometry x="324" y="970" width="180" height="80" as="geometry" />
        </mxCell>
        <mxCell id="X5c3_fw7_WyNCvutC-Mr-34" style="edgeStyle=orthogonalEdgeStyle;rounded=0;orthogonalLoop=1;jettySize=auto;html=1;exitX=0;exitY=0.5;exitDx=0;exitDy=0;entryX=0;entryY=0.5;entryDx=0;entryDy=0;" edge="1" parent="1" source="X5c3_fw7_WyNCvutC-Mr-27" target="X5c3_fw7_WyNCvutC-Mr-23">
          <mxGeometry relative="1" as="geometry" />
        </mxCell>
        <mxCell id="X5c3_fw7_WyNCvutC-Mr-27" value="Mostrar mensaje de error" style="whiteSpace=wrap;html=1;strokeWidth=2;" vertex="1" parent="1">
          <mxGeometry x="160" y="980" width="120" height="60" as="geometry" />
        </mxCell>
        <mxCell id="X5c3_fw7_WyNCvutC-Mr-32" value="" style="edgeStyle=orthogonalEdgeStyle;rounded=0;orthogonalLoop=1;jettySize=auto;html=1;" edge="1" parent="1" source="X5c3_fw7_WyNCvutC-Mr-29" target="X5c3_fw7_WyNCvutC-Mr-31">
          <mxGeometry relative="1" as="geometry" />
        </mxCell>
        <mxCell id="X5c3_fw7_WyNCvutC-Mr-29" value="Escribir fecha de nacimiento" style="whiteSpace=wrap;html=1;strokeWidth=2;" vertex="1" parent="1">
          <mxGeometry x="354" y="1080" width="120" height="60" as="geometry" />
        </mxCell>
        <mxCell id="X5c3_fw7_WyNCvutC-Mr-36" value="" style="edgeStyle=orthogonalEdgeStyle;rounded=0;orthogonalLoop=1;jettySize=auto;html=1;" edge="1" parent="1" source="X5c3_fw7_WyNCvutC-Mr-31" target="X5c3_fw7_WyNCvutC-Mr-35">
          <mxGeometry relative="1" as="geometry" />
        </mxCell>
        <mxCell id="X5c3_fw7_WyNCvutC-Mr-41" value="" style="edgeStyle=orthogonalEdgeStyle;rounded=0;orthogonalLoop=1;jettySize=auto;html=1;" edge="1" parent="1" source="X5c3_fw7_WyNCvutC-Mr-31" target="X5c3_fw7_WyNCvutC-Mr-40">
          <mxGeometry relative="1" as="geometry" />
        </mxCell>
        <mxCell id="X5c3_fw7_WyNCvutC-Mr-31" value="¿Es mayor de 13 años?" style="rhombus;whiteSpace=wrap;html=1;strokeWidth=2;" vertex="1" parent="1">
          <mxGeometry x="330" y="1180" width="170" height="80" as="geometry" />
        </mxCell>
        <mxCell id="X5c3_fw7_WyNCvutC-Mr-37" style="edgeStyle=orthogonalEdgeStyle;rounded=0;orthogonalLoop=1;jettySize=auto;html=1;exitX=0;exitY=0.5;exitDx=0;exitDy=0;entryX=0;entryY=0.5;entryDx=0;entryDy=0;" edge="1" parent="1" source="X5c3_fw7_WyNCvutC-Mr-35" target="X5c3_fw7_WyNCvutC-Mr-29">
          <mxGeometry relative="1" as="geometry" />
        </mxCell>
        <mxCell id="X5c3_fw7_WyNCvutC-Mr-35" value="Mostrar mensaje de error" style="whiteSpace=wrap;html=1;strokeWidth=2;" vertex="1" parent="1">
          <mxGeometry x="160" y="1190" width="120" height="60" as="geometry" />
        </mxCell>
        <mxCell id="X5c3_fw7_WyNCvutC-Mr-43" value="" style="edgeStyle=orthogonalEdgeStyle;rounded=0;orthogonalLoop=1;jettySize=auto;html=1;" edge="1" parent="1" source="X5c3_fw7_WyNCvutC-Mr-40" target="X5c3_fw7_WyNCvutC-Mr-42">
          <mxGeometry relative="1" as="geometry" />
        </mxCell>
        <mxCell id="X5c3_fw7_WyNCvutC-Mr-47" value="" style="edgeStyle=orthogonalEdgeStyle;rounded=0;orthogonalLoop=1;jettySize=auto;html=1;" edge="1" parent="1" source="X5c3_fw7_WyNCvutC-Mr-40" target="X5c3_fw7_WyNCvutC-Mr-46">
          <mxGeometry relative="1" as="geometry" />
        </mxCell>
        <mxCell id="X5c3_fw7_WyNCvutC-Mr-40" value="¿Es correo electrónico único?" style="rhombus;whiteSpace=wrap;html=1;strokeWidth=2;" vertex="1" parent="1">
          <mxGeometry x="320" y="1290" width="190" height="80" as="geometry" />
        </mxCell>
        <mxCell id="X5c3_fw7_WyNCvutC-Mr-45" value="" style="edgeStyle=orthogonalEdgeStyle;rounded=0;orthogonalLoop=1;jettySize=auto;html=1;" edge="1" parent="1" source="X5c3_fw7_WyNCvutC-Mr-42" target="X5c3_fw7_WyNCvutC-Mr-44">
          <mxGeometry relative="1" as="geometry" />
        </mxCell>
        <mxCell id="X5c3_fw7_WyNCvutC-Mr-42" value="Crear cuenta.&lt;br&gt;Redirigir a..." style="whiteSpace=wrap;html=1;strokeWidth=2;" vertex="1" parent="1">
          <mxGeometry x="355" y="1410" width="120" height="60" as="geometry" />
        </mxCell>
        <mxCell id="X5c3_fw7_WyNCvutC-Mr-44" value="Fin" style="ellipse;whiteSpace=wrap;html=1;strokeWidth=2;" vertex="1" parent="1">
          <mxGeometry x="375" y="1510" width="80" height="80" as="geometry" />
        </mxCell>
        <mxCell id="X5c3_fw7_WyNCvutC-Mr-48" style="edgeStyle=orthogonalEdgeStyle;rounded=0;orthogonalLoop=1;jettySize=auto;html=1;exitX=0;exitY=0.5;exitDx=0;exitDy=0;entryX=0;entryY=0.25;entryDx=0;entryDy=0;" edge="1" parent="1" source="X5c3_fw7_WyNCvutC-Mr-46" target="X5c3_fw7_WyNCvutC-Mr-8">
          <mxGeometry relative="1" as="geometry">
            <Array as="points">
              <mxPoint x="100" y="1330" />
              <mxPoint x="100" y="360" />
              <mxPoint x="330" y="360" />
              <mxPoint x="330" y="365" />
            </Array>
          </mxGeometry>
        </mxCell>
        <mxCell id="X5c3_fw7_WyNCvutC-Mr-46" value="Mostrar mensaje de error: &quot;Ya hay una cuenta registrada&quot;" style="whiteSpace=wrap;html=1;strokeWidth=2;" vertex="1" parent="1">
          <mxGeometry x="160" y="1300" width="120" height="60" as="geometry" />
        </mxCell>
        <mxCell id="X5c3_fw7_WyNCvutC-Mr-49" value="Sí" style="text;html=1;align=center;verticalAlign=middle;whiteSpace=wrap;rounded=0;" vertex="1" parent="1">
          <mxGeometry x="420" y="1370" width="60" height="30" as="geometry" />
        </mxCell>
        <mxCell id="X5c3_fw7_WyNCvutC-Mr-50" value="No" style="text;html=1;align=center;verticalAlign=middle;whiteSpace=wrap;rounded=0;" vertex="1" parent="1">
          <mxGeometry x="280" y="1300" width="60" height="30" as="geometry" />
        </mxCell>
        <mxCell id="X5c3_fw7_WyNCvutC-Mr-51" value="Sí" style="text;html=1;align=center;verticalAlign=middle;whiteSpace=wrap;rounded=0;" vertex="1" parent="1">
          <mxGeometry x="415" y="1260" width="60" height="30" as="geometry" />
        </mxCell>
        <mxCell id="X5c3_fw7_WyNCvutC-Mr-52" value="No" style="text;html=1;align=center;verticalAlign=middle;whiteSpace=wrap;rounded=0;" vertex="1" parent="1">
          <mxGeometry x="275" y="1190" width="60" height="30" as="geometry" />
        </mxCell>
        <mxCell id="X5c3_fw7_WyNCvutC-Mr-53" value="Sí" style="text;html=1;align=center;verticalAlign=middle;whiteSpace=wrap;rounded=0;" vertex="1" parent="1">
          <mxGeometry x="415" y="1050" width="60" height="30" as="geometry" />
        </mxCell>
        <mxCell id="X5c3_fw7_WyNCvutC-Mr-54" value="No" style="text;html=1;align=center;verticalAlign=middle;whiteSpace=wrap;rounded=0;" vertex="1" parent="1">
          <mxGeometry x="275" y="980" width="60" height="30" as="geometry" />
        </mxCell>
        <mxCell id="X5c3_fw7_WyNCvutC-Mr-55" value="Sí" style="text;html=1;align=center;verticalAlign=middle;whiteSpace=wrap;rounded=0;" vertex="1" parent="1">
          <mxGeometry x="414" y="810" width="60" height="30" as="geometry" />
        </mxCell>
        <mxCell id="X5c3_fw7_WyNCvutC-Mr-56" value="No" style="text;html=1;align=center;verticalAlign=middle;whiteSpace=wrap;rounded=0;" vertex="1" parent="1">
          <mxGeometry x="274" y="740" width="60" height="30" as="geometry" />
        </mxCell>
        <mxCell id="X5c3_fw7_WyNCvutC-Mr-57" value="Sí" style="text;html=1;align=center;verticalAlign=middle;whiteSpace=wrap;rounded=0;" vertex="1" parent="1">
          <mxGeometry x="415" y="540" width="60" height="30" as="geometry" />
        </mxCell>
        <mxCell id="X5c3_fw7_WyNCvutC-Mr-58" value="No" style="text;html=1;align=center;verticalAlign=middle;whiteSpace=wrap;rounded=0;" vertex="1" parent="1">
          <mxGeometry x="275" y="470" width="60" height="30" as="geometry" />
        </mxCell>
        <mxCell id="X5c3_fw7_WyNCvutC-Mr-59" value="Sí" style="text;html=1;align=center;verticalAlign=middle;whiteSpace=wrap;rounded=0;" vertex="1" parent="1">
          <mxGeometry x="415" y="300" width="60" height="30" as="geometry" />
        </mxCell>
        <mxCell id="X5c3_fw7_WyNCvutC-Mr-60" value="No" style="text;html=1;align=center;verticalAlign=middle;whiteSpace=wrap;rounded=0;" vertex="1" parent="1">
          <mxGeometry x="275" y="230" width="60" height="30" as="geometry" />
        </mxCell>
      </root>
    </mxGraphModel>
  </diagram>
</mxfile>
